<mxfile host="app.diagrams.net" agent="Mozilla/5.0 (Windows NT 10.0; Win64; x64) AppleWebKit/537.36 (KHTML, like Gecko) Chrome/134.0.0.0 Safari/537.36" version="26.2.4">
  <diagram name="Page-1" id="zoeYekz6GFlpzUWuYWPO">
    <mxGraphModel dx="2635" dy="2039" grid="1" gridSize="10" guides="1" tooltips="1" connect="1" arrows="1" fold="1" page="1" pageScale="1" pageWidth="850" pageHeight="1100" math="0" shadow="0">
      <root>
        <mxCell id="0" />
        <mxCell id="1" parent="0" />
        <mxCell id="qRT6veAJQNbSLLfvExSd-1" value="User" style="swimlane;fontStyle=1;align=center;verticalAlign=top;childLayout=stackLayout;horizontal=1;startSize=26;horizontalStack=0;resizeParent=1;resizeParentMax=0;resizeLast=0;collapsible=1;marginBottom=0;whiteSpace=wrap;html=1;" vertex="1" parent="1">
          <mxGeometry x="345" y="50" width="160" height="114" as="geometry" />
        </mxCell>
        <mxCell id="qRT6veAJQNbSLLfvExSd-2" value="+&amp;nbsp; username: String" style="text;strokeColor=none;fillColor=none;align=left;verticalAlign=top;spacingLeft=4;spacingRight=4;overflow=hidden;rotatable=0;points=[[0,0.5],[1,0.5]];portConstraint=eastwest;whiteSpace=wrap;html=1;" vertex="1" parent="qRT6veAJQNbSLLfvExSd-1">
          <mxGeometry y="26" width="160" height="26" as="geometry" />
        </mxCell>
        <mxCell id="qRT6veAJQNbSLLfvExSd-3" value="" style="line;strokeWidth=1;fillColor=none;align=left;verticalAlign=middle;spacingTop=-1;spacingLeft=3;spacingRight=3;rotatable=0;labelPosition=right;points=[];portConstraint=eastwest;strokeColor=inherit;" vertex="1" parent="qRT6veAJQNbSLLfvExSd-1">
          <mxGeometry y="52" width="160" height="8" as="geometry" />
        </mxCell>
        <mxCell id="qRT6veAJQNbSLLfvExSd-4" value="+&amp;nbsp; phoneNumber: String" style="text;strokeColor=none;fillColor=none;align=left;verticalAlign=top;spacingLeft=4;spacingRight=4;overflow=hidden;rotatable=0;points=[[0,0.5],[1,0.5]];portConstraint=eastwest;whiteSpace=wrap;html=1;" vertex="1" parent="qRT6veAJQNbSLLfvExSd-1">
          <mxGeometry y="60" width="160" height="20" as="geometry" />
        </mxCell>
        <mxCell id="qRT6veAJQNbSLLfvExSd-122" value="" style="line;strokeWidth=1;fillColor=none;align=left;verticalAlign=middle;spacingTop=-1;spacingLeft=3;spacingRight=3;rotatable=0;labelPosition=right;points=[];portConstraint=eastwest;strokeColor=inherit;" vertex="1" parent="qRT6veAJQNbSLLfvExSd-1">
          <mxGeometry y="80" width="160" height="8" as="geometry" />
        </mxCell>
        <mxCell id="qRT6veAJQNbSLLfvExSd-123" value="+ ProfilePhoto: String?" style="text;strokeColor=none;fillColor=none;align=left;verticalAlign=top;spacingLeft=4;spacingRight=4;overflow=hidden;rotatable=0;points=[[0,0.5],[1,0.5]];portConstraint=eastwest;whiteSpace=wrap;html=1;" vertex="1" parent="qRT6veAJQNbSLLfvExSd-1">
          <mxGeometry y="88" width="160" height="26" as="geometry" />
        </mxCell>
        <mxCell id="qRT6veAJQNbSLLfvExSd-5" value="Customer" style="swimlane;fontStyle=1;align=center;verticalAlign=top;childLayout=stackLayout;horizontal=1;startSize=26;horizontalStack=0;resizeParent=1;resizeParentMax=0;resizeLast=0;collapsible=1;marginBottom=0;whiteSpace=wrap;html=1;" vertex="1" parent="1">
          <mxGeometry x="600" y="320" width="160" height="60" as="geometry" />
        </mxCell>
        <mxCell id="qRT6veAJQNbSLLfvExSd-6" value="-" style="text;strokeColor=none;fillColor=none;align=left;verticalAlign=top;spacingLeft=4;spacingRight=4;overflow=hidden;rotatable=0;points=[[0,0.5],[1,0.5]];portConstraint=eastwest;whiteSpace=wrap;html=1;" vertex="1" parent="qRT6veAJQNbSLLfvExSd-5">
          <mxGeometry y="26" width="160" height="26" as="geometry" />
        </mxCell>
        <mxCell id="qRT6veAJQNbSLLfvExSd-7" value="" style="line;strokeWidth=1;fillColor=none;align=left;verticalAlign=middle;spacingTop=-1;spacingLeft=3;spacingRight=3;rotatable=0;labelPosition=right;points=[];portConstraint=eastwest;strokeColor=inherit;" vertex="1" parent="qRT6veAJQNbSLLfvExSd-5">
          <mxGeometry y="52" width="160" height="8" as="geometry" />
        </mxCell>
        <mxCell id="qRT6veAJQNbSLLfvExSd-9" value="Chef" style="swimlane;fontStyle=1;align=center;verticalAlign=top;childLayout=stackLayout;horizontal=1;startSize=26;horizontalStack=0;resizeParent=1;resizeParentMax=0;resizeLast=0;collapsible=1;marginBottom=0;whiteSpace=wrap;html=1;" vertex="1" parent="1">
          <mxGeometry x="345" y="320" width="160" height="60" as="geometry" />
        </mxCell>
        <mxCell id="qRT6veAJQNbSLLfvExSd-10" value="-" style="text;strokeColor=none;fillColor=none;align=left;verticalAlign=top;spacingLeft=4;spacingRight=4;overflow=hidden;rotatable=0;points=[[0,0.5],[1,0.5]];portConstraint=eastwest;whiteSpace=wrap;html=1;" vertex="1" parent="qRT6veAJQNbSLLfvExSd-9">
          <mxGeometry y="26" width="160" height="26" as="geometry" />
        </mxCell>
        <mxCell id="qRT6veAJQNbSLLfvExSd-11" value="" style="line;strokeWidth=1;fillColor=none;align=left;verticalAlign=middle;spacingTop=-1;spacingLeft=3;spacingRight=3;rotatable=0;labelPosition=right;points=[];portConstraint=eastwest;strokeColor=inherit;" vertex="1" parent="qRT6veAJQNbSLLfvExSd-9">
          <mxGeometry y="52" width="160" height="8" as="geometry" />
        </mxCell>
        <mxCell id="qRT6veAJQNbSLLfvExSd-13" value="Fisherman" style="swimlane;fontStyle=1;align=center;verticalAlign=top;childLayout=stackLayout;horizontal=1;startSize=26;horizontalStack=0;resizeParent=1;resizeParentMax=0;resizeLast=0;collapsible=1;marginBottom=0;whiteSpace=wrap;html=1;" vertex="1" parent="1">
          <mxGeometry x="80" y="320" width="160" height="60" as="geometry" />
        </mxCell>
        <mxCell id="qRT6veAJQNbSLLfvExSd-14" value="-" style="text;strokeColor=none;fillColor=none;align=left;verticalAlign=top;spacingLeft=4;spacingRight=4;overflow=hidden;rotatable=0;points=[[0,0.5],[1,0.5]];portConstraint=eastwest;whiteSpace=wrap;html=1;" vertex="1" parent="qRT6veAJQNbSLLfvExSd-13">
          <mxGeometry y="26" width="160" height="26" as="geometry" />
        </mxCell>
        <mxCell id="qRT6veAJQNbSLLfvExSd-15" value="" style="line;strokeWidth=1;fillColor=none;align=left;verticalAlign=middle;spacingTop=-1;spacingLeft=3;spacingRight=3;rotatable=0;labelPosition=right;points=[];portConstraint=eastwest;strokeColor=inherit;" vertex="1" parent="qRT6veAJQNbSLLfvExSd-13">
          <mxGeometry y="52" width="160" height="8" as="geometry" />
        </mxCell>
        <mxCell id="qRT6veAJQNbSLLfvExSd-19" value="" style="edgeStyle=none;html=1;endSize=12;endArrow=block;endFill=0;rounded=0;" edge="1" parent="1" source="qRT6veAJQNbSLLfvExSd-13" target="qRT6veAJQNbSLLfvExSd-1">
          <mxGeometry width="160" relative="1" as="geometry">
            <mxPoint x="350" y="190" as="sourcePoint" />
            <mxPoint x="510" y="190" as="targetPoint" />
          </mxGeometry>
        </mxCell>
        <mxCell id="qRT6veAJQNbSLLfvExSd-20" value="" style="edgeStyle=none;html=1;endSize=12;endArrow=block;endFill=0;rounded=0;" edge="1" parent="1" source="qRT6veAJQNbSLLfvExSd-9" target="qRT6veAJQNbSLLfvExSd-1">
          <mxGeometry width="160" relative="1" as="geometry">
            <mxPoint x="170" y="330" as="sourcePoint" />
            <mxPoint x="170" y="146" as="targetPoint" />
          </mxGeometry>
        </mxCell>
        <mxCell id="qRT6veAJQNbSLLfvExSd-22" value="" style="edgeStyle=none;html=1;endSize=12;endArrow=block;endFill=0;rounded=0;" edge="1" parent="1" source="qRT6veAJQNbSLLfvExSd-5" target="qRT6veAJQNbSLLfvExSd-1">
          <mxGeometry width="160" relative="1" as="geometry">
            <mxPoint x="393" y="330" as="sourcePoint" />
            <mxPoint x="212" y="146" as="targetPoint" />
          </mxGeometry>
        </mxCell>
        <mxCell id="qRT6veAJQNbSLLfvExSd-23" value="Order" style="swimlane;fontStyle=1;align=center;verticalAlign=top;childLayout=stackLayout;horizontal=1;startSize=26;horizontalStack=0;resizeParent=1;resizeParentMax=0;resizeLast=0;collapsible=1;marginBottom=0;whiteSpace=wrap;html=1;" vertex="1" parent="1">
          <mxGeometry x="600" y="502" width="160" height="60" as="geometry" />
        </mxCell>
        <mxCell id="qRT6veAJQNbSLLfvExSd-24" value="+status: String" style="text;strokeColor=none;fillColor=none;align=left;verticalAlign=top;spacingLeft=4;spacingRight=4;overflow=hidden;rotatable=0;points=[[0,0.5],[1,0.5]];portConstraint=eastwest;whiteSpace=wrap;html=1;" vertex="1" parent="qRT6veAJQNbSLLfvExSd-23">
          <mxGeometry y="26" width="160" height="26" as="geometry" />
        </mxCell>
        <mxCell id="qRT6veAJQNbSLLfvExSd-25" value="" style="line;strokeWidth=1;fillColor=none;align=left;verticalAlign=middle;spacingTop=-1;spacingLeft=3;spacingRight=3;rotatable=0;labelPosition=right;points=[];portConstraint=eastwest;strokeColor=inherit;" vertex="1" parent="qRT6veAJQNbSLLfvExSd-23">
          <mxGeometry y="52" width="160" height="8" as="geometry" />
        </mxCell>
        <mxCell id="qRT6veAJQNbSLLfvExSd-27" value="&lt;code data-end=&quot;1324&quot; data-start=&quot;1318&quot;&gt;Dish&lt;/code&gt;" style="swimlane;fontStyle=1;align=center;verticalAlign=top;childLayout=stackLayout;horizontal=1;startSize=26;horizontalStack=0;resizeParent=1;resizeParentMax=0;resizeLast=0;collapsible=1;marginBottom=0;whiteSpace=wrap;html=1;" vertex="1" parent="1">
          <mxGeometry x="600" y="680" width="160" height="124" as="geometry" />
        </mxCell>
        <mxCell id="qRT6veAJQNbSLLfvExSd-28" value="+name: String" style="text;strokeColor=none;fillColor=none;align=left;verticalAlign=top;spacingLeft=4;spacingRight=4;overflow=hidden;rotatable=0;points=[[0,0.5],[1,0.5]];portConstraint=eastwest;whiteSpace=wrap;html=1;" vertex="1" parent="qRT6veAJQNbSLLfvExSd-27">
          <mxGeometry y="26" width="160" height="26" as="geometry" />
        </mxCell>
        <mxCell id="qRT6veAJQNbSLLfvExSd-29" value="" style="line;strokeWidth=1;fillColor=none;align=left;verticalAlign=middle;spacingTop=-1;spacingLeft=3;spacingRight=3;rotatable=0;labelPosition=right;points=[];portConstraint=eastwest;strokeColor=inherit;" vertex="1" parent="qRT6veAJQNbSLLfvExSd-27">
          <mxGeometry y="52" width="160" height="8" as="geometry" />
        </mxCell>
        <mxCell id="qRT6veAJQNbSLLfvExSd-30" value="+price: Double" style="text;strokeColor=none;fillColor=none;align=left;verticalAlign=top;spacingLeft=4;spacingRight=4;overflow=hidden;rotatable=0;points=[[0,0.5],[1,0.5]];portConstraint=eastwest;whiteSpace=wrap;html=1;" vertex="1" parent="qRT6veAJQNbSLLfvExSd-27">
          <mxGeometry y="60" width="160" height="26" as="geometry" />
        </mxCell>
        <mxCell id="qRT6veAJQNbSLLfvExSd-34" value="" style="line;strokeWidth=1;fillColor=none;align=left;verticalAlign=middle;spacingTop=-1;spacingLeft=3;spacingRight=3;rotatable=0;labelPosition=right;points=[];portConstraint=eastwest;strokeColor=inherit;" vertex="1" parent="qRT6veAJQNbSLLfvExSd-27">
          <mxGeometry y="86" width="160" height="8" as="geometry" />
        </mxCell>
        <mxCell id="qRT6veAJQNbSLLfvExSd-32" value="+Avg_rating: int" style="text;strokeColor=none;fillColor=none;align=left;verticalAlign=top;spacingLeft=4;spacingRight=4;overflow=hidden;rotatable=0;points=[[0,0.5],[1,0.5]];portConstraint=eastwest;whiteSpace=wrap;html=1;" vertex="1" parent="qRT6veAJQNbSLLfvExSd-27">
          <mxGeometry y="94" width="160" height="30" as="geometry" />
        </mxCell>
        <mxCell id="qRT6veAJQNbSLLfvExSd-48" value="" style="endArrow=none;html=1;rounded=0;startFill=0;" edge="1" parent="1" source="qRT6veAJQNbSLLfvExSd-5" target="qRT6veAJQNbSLLfvExSd-23">
          <mxGeometry relative="1" as="geometry">
            <mxPoint x="350" y="570" as="sourcePoint" />
            <mxPoint x="510" y="570" as="targetPoint" />
          </mxGeometry>
        </mxCell>
        <mxCell id="qRT6veAJQNbSLLfvExSd-49" value="1" style="edgeLabel;resizable=0;html=1;;align=center;verticalAlign=middle;" connectable="0" vertex="1" parent="qRT6veAJQNbSLLfvExSd-48">
          <mxGeometry relative="1" as="geometry">
            <mxPoint x="20" y="49" as="offset" />
          </mxGeometry>
        </mxCell>
        <mxCell id="qRT6veAJQNbSLLfvExSd-50" value="0..*" style="edgeLabel;resizable=0;html=1;;align=left;verticalAlign=bottom;" connectable="0" vertex="1" parent="qRT6veAJQNbSLLfvExSd-48">
          <mxGeometry x="-1" relative="1" as="geometry">
            <mxPoint y="20" as="offset" />
          </mxGeometry>
        </mxCell>
        <mxCell id="qRT6veAJQNbSLLfvExSd-67" value="places" style="edgeLabel;html=1;align=center;verticalAlign=middle;resizable=0;points=[];" vertex="1" connectable="0" parent="qRT6veAJQNbSLLfvExSd-48">
          <mxGeometry x="-0.0874" y="2" relative="1" as="geometry">
            <mxPoint as="offset" />
          </mxGeometry>
        </mxCell>
        <mxCell id="qRT6veAJQNbSLLfvExSd-51" value="" style="endArrow=none;html=1;rounded=0;startFill=0;" edge="1" parent="1" source="qRT6veAJQNbSLLfvExSd-23" target="qRT6veAJQNbSLLfvExSd-27">
          <mxGeometry relative="1" as="geometry">
            <mxPoint x="520" y="580" as="sourcePoint" />
            <mxPoint x="520" y="702" as="targetPoint" />
          </mxGeometry>
        </mxCell>
        <mxCell id="qRT6veAJQNbSLLfvExSd-52" value="&lt;span style=&quot;text-align: left;&quot;&gt;0..*&lt;/span&gt;" style="edgeLabel;resizable=0;html=1;;align=center;verticalAlign=middle;" connectable="0" vertex="1" parent="qRT6veAJQNbSLLfvExSd-51">
          <mxGeometry relative="1" as="geometry">
            <mxPoint x="20" y="49" as="offset" />
          </mxGeometry>
        </mxCell>
        <mxCell id="qRT6veAJQNbSLLfvExSd-53" value="1..*" style="edgeLabel;resizable=0;html=1;;align=left;verticalAlign=bottom;" connectable="0" vertex="1" parent="qRT6veAJQNbSLLfvExSd-51">
          <mxGeometry x="-1" relative="1" as="geometry">
            <mxPoint y="20" as="offset" />
          </mxGeometry>
        </mxCell>
        <mxCell id="qRT6veAJQNbSLLfvExSd-68" value="contains" style="edgeLabel;html=1;align=center;verticalAlign=middle;resizable=0;points=[];" vertex="1" connectable="0" parent="qRT6veAJQNbSLLfvExSd-51">
          <mxGeometry x="-0.0621" y="1" relative="1" as="geometry">
            <mxPoint as="offset" />
          </mxGeometry>
        </mxCell>
        <mxCell id="qRT6veAJQNbSLLfvExSd-54" value="" style="endArrow=classic;html=1;rounded=0;exitX=0.5;exitY=0;exitDx=0;exitDy=0;" edge="1" parent="1" source="qRT6veAJQNbSLLfvExSd-1">
          <mxGeometry relative="1" as="geometry">
            <mxPoint x="430" y="-60" as="sourcePoint" />
            <mxPoint x="340" y="50" as="targetPoint" />
            <Array as="points">
              <mxPoint x="425" />
              <mxPoint x="280" />
              <mxPoint x="280" y="50" />
            </Array>
          </mxGeometry>
        </mxCell>
        <mxCell id="qRT6veAJQNbSLLfvExSd-55" value="0..*" style="edgeLabel;resizable=0;html=1;;align=center;verticalAlign=middle;" connectable="0" vertex="1" parent="qRT6veAJQNbSLLfvExSd-54">
          <mxGeometry relative="1" as="geometry">
            <mxPoint x="-2" y="60" as="offset" />
          </mxGeometry>
        </mxCell>
        <mxCell id="qRT6veAJQNbSLLfvExSd-56" value="0..*" style="edgeLabel;resizable=0;html=1;;align=left;verticalAlign=bottom;" connectable="0" vertex="1" parent="qRT6veAJQNbSLLfvExSd-54">
          <mxGeometry x="-1" relative="1" as="geometry">
            <mxPoint y="-10" as="offset" />
          </mxGeometry>
        </mxCell>
        <mxCell id="qRT6veAJQNbSLLfvExSd-57" value="IsFriendOf" style="edgeLabel;html=1;align=center;verticalAlign=middle;resizable=0;points=[];" vertex="1" connectable="0" parent="qRT6veAJQNbSLLfvExSd-54">
          <mxGeometry x="-0.1213" y="3" relative="1" as="geometry">
            <mxPoint as="offset" />
          </mxGeometry>
        </mxCell>
        <mxCell id="qRT6veAJQNbSLLfvExSd-58" value="Rating" style="swimlane;fontStyle=1;align=center;verticalAlign=top;childLayout=stackLayout;horizontal=1;startSize=26;horizontalStack=0;resizeParent=1;resizeParentMax=0;resizeLast=0;collapsible=1;marginBottom=0;whiteSpace=wrap;html=1;" vertex="1" parent="1">
          <mxGeometry x="920" y="699" width="160" height="86" as="geometry" />
        </mxCell>
        <mxCell id="qRT6veAJQNbSLLfvExSd-59" value="+stars: int" style="text;strokeColor=none;fillColor=none;align=left;verticalAlign=top;spacingLeft=4;spacingRight=4;overflow=hidden;rotatable=0;points=[[0,0.5],[1,0.5]];portConstraint=eastwest;whiteSpace=wrap;html=1;" vertex="1" parent="qRT6veAJQNbSLLfvExSd-58">
          <mxGeometry y="26" width="160" height="26" as="geometry" />
        </mxCell>
        <mxCell id="qRT6veAJQNbSLLfvExSd-60" value="" style="line;strokeWidth=1;fillColor=none;align=left;verticalAlign=middle;spacingTop=-1;spacingLeft=3;spacingRight=3;rotatable=0;labelPosition=right;points=[];portConstraint=eastwest;strokeColor=inherit;" vertex="1" parent="qRT6veAJQNbSLLfvExSd-58">
          <mxGeometry y="52" width="160" height="8" as="geometry" />
        </mxCell>
        <mxCell id="qRT6veAJQNbSLLfvExSd-61" value="+ comment:String&lt;div&gt;&lt;br&gt;&lt;/div&gt;" style="text;strokeColor=none;fillColor=none;align=left;verticalAlign=top;spacingLeft=4;spacingRight=4;overflow=hidden;rotatable=0;points=[[0,0.5],[1,0.5]];portConstraint=eastwest;whiteSpace=wrap;html=1;" vertex="1" parent="qRT6veAJQNbSLLfvExSd-58">
          <mxGeometry y="60" width="160" height="26" as="geometry" />
        </mxCell>
        <mxCell id="qRT6veAJQNbSLLfvExSd-73" value="r" style="endArrow=none;html=1;rounded=0;startFill=0;" edge="1" parent="1" source="qRT6veAJQNbSLLfvExSd-58" target="qRT6veAJQNbSLLfvExSd-27">
          <mxGeometry relative="1" as="geometry">
            <mxPoint x="220" y="770" as="sourcePoint" />
            <mxPoint x="220" y="876" as="targetPoint" />
          </mxGeometry>
        </mxCell>
        <mxCell id="qRT6veAJQNbSLLfvExSd-74" value="&lt;span style=&quot;text-align: left;&quot;&gt;0..*&lt;/span&gt;" style="edgeLabel;resizable=0;html=1;;align=center;verticalAlign=middle;" connectable="0" vertex="1" parent="qRT6veAJQNbSLLfvExSd-73">
          <mxGeometry relative="1" as="geometry">
            <mxPoint x="60" y="-22" as="offset" />
          </mxGeometry>
        </mxCell>
        <mxCell id="qRT6veAJQNbSLLfvExSd-75" value="1" style="edgeLabel;resizable=0;html=1;;align=left;verticalAlign=bottom;" connectable="0" vertex="1" parent="qRT6veAJQNbSLLfvExSd-73">
          <mxGeometry x="-1" relative="1" as="geometry">
            <mxPoint x="-150" y="-12" as="offset" />
          </mxGeometry>
        </mxCell>
        <mxCell id="qRT6veAJQNbSLLfvExSd-76" value="rated" style="edgeLabel;html=1;align=center;verticalAlign=middle;resizable=0;points=[];" vertex="1" connectable="0" parent="qRT6veAJQNbSLLfvExSd-73">
          <mxGeometry x="-0.0621" y="1" relative="1" as="geometry">
            <mxPoint as="offset" />
          </mxGeometry>
        </mxCell>
        <mxCell id="qRT6veAJQNbSLLfvExSd-77" value="" style="endArrow=none;html=1;rounded=0;startFill=0;" edge="1" parent="1" source="qRT6veAJQNbSLLfvExSd-5" target="qRT6veAJQNbSLLfvExSd-58">
          <mxGeometry relative="1" as="geometry">
            <mxPoint x="820" y="620" as="sourcePoint" />
            <mxPoint x="820" y="726" as="targetPoint" />
            <Array as="points">
              <mxPoint x="840" y="350" />
              <mxPoint x="1000" y="350" />
            </Array>
            <mxPoint as="offset" />
          </mxGeometry>
        </mxCell>
        <mxCell id="qRT6veAJQNbSLLfvExSd-78" value="&lt;span style=&quot;text-align: left;&quot;&gt;0..*&lt;/span&gt;" style="edgeLabel;resizable=0;html=1;;align=center;verticalAlign=middle;" connectable="0" vertex="1" parent="qRT6veAJQNbSLLfvExSd-77">
          <mxGeometry relative="1" as="geometry">
            <mxPoint x="-220" y="-70" as="offset" />
          </mxGeometry>
        </mxCell>
        <mxCell id="qRT6veAJQNbSLLfvExSd-79" value="1" style="edgeLabel;resizable=0;html=1;;align=left;verticalAlign=bottom;" connectable="0" vertex="1" parent="qRT6veAJQNbSLLfvExSd-77">
          <mxGeometry x="-1" relative="1" as="geometry">
            <mxPoint x="250" y="330" as="offset" />
          </mxGeometry>
        </mxCell>
        <mxCell id="qRT6veAJQNbSLLfvExSd-80" value="creates" style="edgeLabel;html=1;align=center;verticalAlign=middle;resizable=0;points=[];" vertex="1" connectable="0" parent="qRT6veAJQNbSLLfvExSd-77">
          <mxGeometry x="-0.0621" y="1" relative="1" as="geometry">
            <mxPoint x="-1" y="108" as="offset" />
          </mxGeometry>
        </mxCell>
        <mxCell id="qRT6veAJQNbSLLfvExSd-82" value="Ingredient" style="swimlane;fontStyle=1;align=center;verticalAlign=top;childLayout=stackLayout;horizontal=1;startSize=26;horizontalStack=0;resizeParent=1;resizeParentMax=0;resizeLast=0;collapsible=1;marginBottom=0;whiteSpace=wrap;html=1;" vertex="1" parent="1">
          <mxGeometry x="185" y="699" width="160" height="86" as="geometry" />
        </mxCell>
        <mxCell id="qRT6veAJQNbSLLfvExSd-83" value="+name: String&amp;nbsp;" style="text;strokeColor=none;fillColor=none;align=left;verticalAlign=top;spacingLeft=4;spacingRight=4;overflow=hidden;rotatable=0;points=[[0,0.5],[1,0.5]];portConstraint=eastwest;whiteSpace=wrap;html=1;" vertex="1" parent="qRT6veAJQNbSLLfvExSd-82">
          <mxGeometry y="26" width="160" height="26" as="geometry" />
        </mxCell>
        <mxCell id="qRT6veAJQNbSLLfvExSd-84" value="" style="line;strokeWidth=1;fillColor=none;align=left;verticalAlign=middle;spacingTop=-1;spacingLeft=3;spacingRight=3;rotatable=0;labelPosition=right;points=[];portConstraint=eastwest;strokeColor=inherit;" vertex="1" parent="qRT6veAJQNbSLLfvExSd-82">
          <mxGeometry y="52" width="160" height="8" as="geometry" />
        </mxCell>
        <mxCell id="qRT6veAJQNbSLLfvExSd-85" value="+quantity: int" style="text;strokeColor=none;fillColor=none;align=left;verticalAlign=top;spacingLeft=4;spacingRight=4;overflow=hidden;rotatable=0;points=[[0,0.5],[1,0.5]];portConstraint=eastwest;whiteSpace=wrap;html=1;" vertex="1" parent="qRT6veAJQNbSLLfvExSd-82">
          <mxGeometry y="60" width="160" height="26" as="geometry" />
        </mxCell>
        <mxCell id="qRT6veAJQNbSLLfvExSd-86" value="r" style="endArrow=none;html=1;rounded=0;startFill=0;" edge="1" parent="1" source="qRT6veAJQNbSLLfvExSd-27">
          <mxGeometry relative="1" as="geometry">
            <mxPoint x="540" y="730" as="sourcePoint" />
            <mxPoint x="345" y="742" as="targetPoint" />
          </mxGeometry>
        </mxCell>
        <mxCell id="qRT6veAJQNbSLLfvExSd-87" value="&lt;strong data-end=&quot;1454&quot; data-start=&quot;1447&quot;&gt;1..&lt;/strong&gt;*" style="edgeLabel;resizable=0;html=1;;align=center;verticalAlign=middle;" connectable="0" vertex="1" parent="qRT6veAJQNbSLLfvExSd-86">
          <mxGeometry relative="1" as="geometry">
            <mxPoint x="107" y="-12" as="offset" />
          </mxGeometry>
        </mxCell>
        <mxCell id="qRT6veAJQNbSLLfvExSd-88" value="&lt;strong data-end=&quot;1547&quot; data-start=&quot;1540&quot;&gt;0..&lt;/strong&gt;*" style="edgeLabel;resizable=0;html=1;;align=left;verticalAlign=bottom;" connectable="0" vertex="1" parent="qRT6veAJQNbSLLfvExSd-86">
          <mxGeometry x="-1" relative="1" as="geometry">
            <mxPoint x="-240" y="-12" as="offset" />
          </mxGeometry>
        </mxCell>
        <mxCell id="qRT6veAJQNbSLLfvExSd-89" value="requires" style="edgeLabel;html=1;align=center;verticalAlign=middle;resizable=0;points=[];" vertex="1" connectable="0" parent="qRT6veAJQNbSLLfvExSd-86">
          <mxGeometry x="-0.0621" y="1" relative="1" as="geometry">
            <mxPoint as="offset" />
          </mxGeometry>
        </mxCell>
        <mxCell id="qRT6veAJQNbSLLfvExSd-94" value="&lt;code data-end=&quot;1324&quot; data-start=&quot;1318&quot;&gt;Bait&lt;/code&gt;" style="swimlane;fontStyle=1;align=center;verticalAlign=top;childLayout=stackLayout;horizontal=1;startSize=26;horizontalStack=0;resizeParent=1;resizeParentMax=0;resizeLast=0;collapsible=1;marginBottom=0;whiteSpace=wrap;html=1;" vertex="1" parent="1">
          <mxGeometry x="-270" y="480" width="160" height="124" as="geometry" />
        </mxCell>
        <mxCell id="qRT6veAJQNbSLLfvExSd-95" value="+name: String" style="text;strokeColor=none;fillColor=none;align=left;verticalAlign=top;spacingLeft=4;spacingRight=4;overflow=hidden;rotatable=0;points=[[0,0.5],[1,0.5]];portConstraint=eastwest;whiteSpace=wrap;html=1;" vertex="1" parent="qRT6veAJQNbSLLfvExSd-94">
          <mxGeometry y="26" width="160" height="26" as="geometry" />
        </mxCell>
        <mxCell id="qRT6veAJQNbSLLfvExSd-96" value="" style="line;strokeWidth=1;fillColor=none;align=left;verticalAlign=middle;spacingTop=-1;spacingLeft=3;spacingRight=3;rotatable=0;labelPosition=right;points=[];portConstraint=eastwest;strokeColor=inherit;" vertex="1" parent="qRT6veAJQNbSLLfvExSd-94">
          <mxGeometry y="52" width="160" height="8" as="geometry" />
        </mxCell>
        <mxCell id="qRT6veAJQNbSLLfvExSd-97" value="+effectiveness: int" style="text;strokeColor=none;fillColor=none;align=left;verticalAlign=top;spacingLeft=4;spacingRight=4;overflow=hidden;rotatable=0;points=[[0,0.5],[1,0.5]];portConstraint=eastwest;whiteSpace=wrap;html=1;" vertex="1" parent="qRT6veAJQNbSLLfvExSd-94">
          <mxGeometry y="60" width="160" height="26" as="geometry" />
        </mxCell>
        <mxCell id="qRT6veAJQNbSLLfvExSd-98" value="" style="line;strokeWidth=1;fillColor=none;align=left;verticalAlign=middle;spacingTop=-1;spacingLeft=3;spacingRight=3;rotatable=0;labelPosition=right;points=[];portConstraint=eastwest;strokeColor=inherit;" vertex="1" parent="qRT6veAJQNbSLLfvExSd-94">
          <mxGeometry y="86" width="160" height="8" as="geometry" />
        </mxCell>
        <mxCell id="qRT6veAJQNbSLLfvExSd-99" value="+price: float&amp;nbsp;" style="text;strokeColor=none;fillColor=none;align=left;verticalAlign=top;spacingLeft=4;spacingRight=4;overflow=hidden;rotatable=0;points=[[0,0.5],[1,0.5]];portConstraint=eastwest;whiteSpace=wrap;html=1;" vertex="1" parent="qRT6veAJQNbSLLfvExSd-94">
          <mxGeometry y="94" width="160" height="30" as="geometry" />
        </mxCell>
        <mxCell id="qRT6veAJQNbSLLfvExSd-100" value="&lt;code data-end=&quot;1324&quot; data-start=&quot;1318&quot;&gt;FishLog&lt;/code&gt;" style="swimlane;fontStyle=1;align=center;verticalAlign=top;childLayout=stackLayout;horizontal=1;startSize=26;horizontalStack=0;resizeParent=1;resizeParentMax=0;resizeLast=0;collapsible=1;marginBottom=0;whiteSpace=wrap;html=1;" vertex="1" parent="1">
          <mxGeometry x="80" y="480" width="160" height="160" as="geometry" />
        </mxCell>
        <mxCell id="qRT6veAJQNbSLLfvExSd-101" value="+date: Date&amp;nbsp;" style="text;strokeColor=none;fillColor=none;align=left;verticalAlign=top;spacingLeft=4;spacingRight=4;overflow=hidden;rotatable=0;points=[[0,0.5],[1,0.5]];portConstraint=eastwest;whiteSpace=wrap;html=1;" vertex="1" parent="qRT6veAJQNbSLLfvExSd-100">
          <mxGeometry y="26" width="160" height="26" as="geometry" />
        </mxCell>
        <mxCell id="qRT6veAJQNbSLLfvExSd-102" value="" style="line;strokeWidth=1;fillColor=none;align=left;verticalAlign=middle;spacingTop=-1;spacingLeft=3;spacingRight=3;rotatable=0;labelPosition=right;points=[];portConstraint=eastwest;strokeColor=inherit;" vertex="1" parent="qRT6veAJQNbSLLfvExSd-100">
          <mxGeometry y="52" width="160" height="8" as="geometry" />
        </mxCell>
        <mxCell id="qRT6veAJQNbSLLfvExSd-103" value="+fishName: String" style="text;strokeColor=none;fillColor=none;align=left;verticalAlign=top;spacingLeft=4;spacingRight=4;overflow=hidden;rotatable=0;points=[[0,0.5],[1,0.5]];portConstraint=eastwest;whiteSpace=wrap;html=1;" vertex="1" parent="qRT6veAJQNbSLLfvExSd-100">
          <mxGeometry y="60" width="160" height="26" as="geometry" />
        </mxCell>
        <mxCell id="qRT6veAJQNbSLLfvExSd-104" value="" style="line;strokeWidth=1;fillColor=none;align=left;verticalAlign=middle;spacingTop=-1;spacingLeft=3;spacingRight=3;rotatable=0;labelPosition=right;points=[];portConstraint=eastwest;strokeColor=inherit;" vertex="1" parent="qRT6veAJQNbSLLfvExSd-100">
          <mxGeometry y="86" width="160" height="8" as="geometry" />
        </mxCell>
        <mxCell id="qRT6veAJQNbSLLfvExSd-105" value="+quantity: int&amp;nbsp;&lt;div&gt;&lt;br&gt;&lt;/div&gt;&lt;div&gt;&lt;br&gt;&lt;/div&gt;" style="text;strokeColor=none;fillColor=none;align=left;verticalAlign=top;spacingLeft=4;spacingRight=4;overflow=hidden;rotatable=0;points=[[0,0.5],[1,0.5]];portConstraint=eastwest;whiteSpace=wrap;html=1;" vertex="1" parent="qRT6veAJQNbSLLfvExSd-100">
          <mxGeometry y="94" width="160" height="26" as="geometry" />
        </mxCell>
        <mxCell id="qRT6veAJQNbSLLfvExSd-120" value="" style="line;strokeWidth=1;fillColor=none;align=left;verticalAlign=middle;spacingTop=-1;spacingLeft=3;spacingRight=3;rotatable=0;labelPosition=right;points=[];portConstraint=eastwest;strokeColor=inherit;" vertex="1" parent="qRT6veAJQNbSLLfvExSd-100">
          <mxGeometry y="120" width="160" height="8" as="geometry" />
        </mxCell>
        <mxCell id="qRT6veAJQNbSLLfvExSd-121" value="+Avg_weight: float" style="text;strokeColor=none;fillColor=none;align=left;verticalAlign=top;spacingLeft=4;spacingRight=4;overflow=hidden;rotatable=0;points=[[0,0.5],[1,0.5]];portConstraint=eastwest;whiteSpace=wrap;html=1;" vertex="1" parent="qRT6veAJQNbSLLfvExSd-100">
          <mxGeometry y="128" width="160" height="32" as="geometry" />
        </mxCell>
        <mxCell id="qRT6veAJQNbSLLfvExSd-116" value="" style="endArrow=none;html=1;rounded=0;startFill=0;" edge="1" parent="1" source="qRT6veAJQNbSLLfvExSd-13" target="qRT6veAJQNbSLLfvExSd-100">
          <mxGeometry relative="1" as="geometry">
            <mxPoint x="320" y="400" as="sourcePoint" />
            <mxPoint x="320" y="522" as="targetPoint" />
          </mxGeometry>
        </mxCell>
        <mxCell id="qRT6veAJQNbSLLfvExSd-117" value="1" style="edgeLabel;resizable=0;html=1;;align=center;verticalAlign=middle;" connectable="0" vertex="1" parent="qRT6veAJQNbSLLfvExSd-116">
          <mxGeometry relative="1" as="geometry">
            <mxPoint x="10" y="40" as="offset" />
          </mxGeometry>
        </mxCell>
        <mxCell id="qRT6veAJQNbSLLfvExSd-118" value="0..*" style="edgeLabel;resizable=0;html=1;;align=left;verticalAlign=bottom;" connectable="0" vertex="1" parent="qRT6veAJQNbSLLfvExSd-116">
          <mxGeometry x="-1" relative="1" as="geometry">
            <mxPoint y="20" as="offset" />
          </mxGeometry>
        </mxCell>
        <mxCell id="qRT6veAJQNbSLLfvExSd-119" value="logs" style="edgeLabel;html=1;align=center;verticalAlign=middle;resizable=0;points=[];" vertex="1" connectable="0" parent="qRT6veAJQNbSLLfvExSd-116">
          <mxGeometry x="-0.0874" y="2" relative="1" as="geometry">
            <mxPoint as="offset" />
          </mxGeometry>
        </mxCell>
      </root>
    </mxGraphModel>
  </diagram>
</mxfile>
